<svg xmlns="http://www.w3.org/2000/svg" viewBox="0 0 512 512"><rect width="512" height="512" fill="#33456b"/><path d="M 77.6 197.1 L 74.4 203.3 L 71.5 209.7 L 68.8 216.2 L 66.4 222.9 L 64.3 229.7 L 63.0 236.7 L 62.0 243.7 L 61.3 250.8 L 60.9 257.9 L 60.7 265.0 L 60.9 272.1 L 61.3 279.2 L 62.1 286.3 L 63.1 293.3 L 64.4 300.3 L 66.0 307.3 L 67.9 314.1 L 70.0 320.9 L 72.4 327.6 L 75.1 334.2 L 78.0 340.7 L 81.1 347.0 L 84.5 353.2 L 88.1 359.3 L 91.9 365.3 L 95.9 371.1 L 100.2 376.7 L 104.6 382.2 L 109.2 387.6 L 113.9 392.8 L 118.9 397.8 L 124.0 402.6 L 129.2 407.3 L 134.6 411.8 L 140.2 416.1 L 145.9 420.2 L 151.7 424.1 L 157.6 427.8 L 163.7 431.3 L 169.9 434.6 L 176.2 437.7 L 182.7 440.6 L 189.2 443.2 L 195.8 445.6 L 202.5 447.8 L 209.3 449.6 L 216.2 451.3 L 223.1 452.6 L 230.0 453.7 L 237.0 454.5 L 244.1 455.1 L 251.1 455.3 L 258.2 455.3 L 265.2 454.9 L 272.2 454.3 L 279.2 453.4 L 286.1 452.3 L 293.0 450.8 L 299.8 449.1 L 306.5 447.1 L 313.1 444.9 L 319.6 442.4 L 326.0 439.6 L 332.3 436.7 L 338.5 433.5 L 344.5 430.0 L 350.4 426.4 L 356.2 422.6 L 361.8 418.6 L 367.2 414.4 L 372.6 410.1 L 377.7 405.5 L 382.7 400.8 L 387.6 396.0 L 392.3 391.0 L 396.8 385.9 L 401.2 380.6 L 405.3 375.3 L 409.4 369.7 L 413.2 364.1 L 416.9 358.3 L 420.4 352.5 L 423.6 346.5 L 426.7 340.4 L 429.6 334.1 L 432.3 327.8 L 434.8 321.4 L 437.0 314.9 L 439.0 308.4 L 440.8 301.7 L 442.3 295.0 L 443.6 288.2 L 444.6 281.4 L 445.3 274.5 L 445.8 267.6 L 446.0 260.7 L 445.9 253.7 L 445.6 246.8 L 445.0 239.9 L 444.1 233.1 L 442.9 226.2 L 441.5 219.4 L 439.8 212.7 L 437.8 206.1 L 435.6 199.5 L 433.1 193.0 L 430.4 186.7 L 427.4 180.4 L 424.3 174.3 L 420.9 168.2 L 417.3 162.4 L 413.4 156.6 L 409.4 151.0 L 405.2 145.5 L 400.8 140.2 L 396.3 135.0 L 391.6 130.0 L 386.7 125.1 L 381.6 120.4 L 376.4 115.9 L 371.1 111.5 L 365.6 107.4 L 360.0 103.3 L 354.2 99.5 L 348.3 95.9 L 342.3 92.5 L 336.1 89.2 L 329.9 86.2 L 323.3 84.0 L 316.7 81.9 L 310.0 80.1 L 303.3 78.6 L 296.5 77.2 L 289.7 76.2 L 282.9 75.4 L 276.0 74.8 L 269.1 74.6 L 262.3 74.5 L 255.5 74.8 L 248.7 75.3 L 241.9 76.1 L 235.2 77.2 L 228.5 78.5 L 222.0 80.1 L 215.5 81.9 L 209.1 84.0 L 202.8 86.3 L 196.6 88.9 L 190.5 91.7 L 184.6 94.7 L 178.7 97.9 L 173.1 101.3 L 167.5 104.9 L 162.2 108.7 L 156.9 112.7 L 151.8 116.8 L 146.9 121.0 L 142.1 125.4 L 137.4 129.9 L 132.9 134.5 L 135.0 136.7 L 139.5 132.2 L 144.2 128.0 L 149.1 123.9 L 154.2 120.0 L 159.3 116.3 L 164.7 112.8 L 170.2 109.6 L 175.8 106.5 L 181.5 103.7 L 187.3 101.1 L 193.2 98.8 L 199.3 96.7 L 205.4 94.9 L 211.5 93.4 L 217.7 92.1 L 224.0 91.1 L 230.3 90.4 L 236.6 89.9 L 242.9 89.8 L 249.2 89.9 L 255.5 90.3 L 261.7 90.9 L 267.9 91.9 L 274.1 93.1 L 280.1 94.5 L 286.0 96.2 L 291.9 98.2 L 297.7 100.4 L 303.3 102.8 L 308.8 105.4 L 314.2 108.2 L 319.4 111.2 L 324.7 113.8 L 330.0 116.7 L 335.1 119.7 L 340.1 122.9 L 345.0 126.2 L 349.8 129.7 L 354.4 133.3 L 358.9 137.1 L 363.3 141.0 L 367.6 145.1 L 371.8 149.3 L 375.8 153.6 L 379.6 158.1 L 383.3 162.6 L 386.9 167.3 L 390.2 172.1 L 393.5 177.1 L 396.5 182.1 L 399.4 187.3 L 402.0 192.5 L 404.5 197.8 L 406.8 203.3 L 408.9 208.8 L 410.7 214.4 L 412.3 220.1 L 413.7 225.8 L 414.9 231.6 L 415.8 237.4 L 416.5 243.2 L 417.0 249.1 L 417.2 255.0 L 417.2 260.9 L 417.0 266.7 L 416.5 272.6 L 415.8 278.4 L 414.8 284.2 L 413.7 289.9 L 412.3 295.6 L 410.7 301.2 L 409.0 306.7 L 407.0 312.2 L 404.8 317.6 L 402.5 322.9 L 400.0 328.1 L 397.3 333.2 L 394.5 338.2 L 391.5 343.1 L 388.3 347.9 L 385.1 352.7 L 381.6 357.3 L 378.1 361.8 L 374.4 366.2 L 370.5 370.4 L 366.6 374.6 L 362.5 378.7 L 358.3 382.6 L 353.9 386.4 L 349.4 390.0 L 344.8 393.5 L 340.1 396.9 L 335.3 400.1 L 330.3 403.1 L 325.3 406.0 L 320.1 408.7 L 314.8 411.2 L 309.4 413.5 L 303.9 415.6 L 298.4 417.4 L 292.7 419.1 L 287.0 420.5 L 281.3 421.7 L 275.4 422.7 L 269.6 423.4 L 263.7 423.9 L 257.8 424.1 L 251.9 424.1 L 246.0 423.9 L 240.1 423.4 L 234.2 422.7 L 228.4 421.7 L 222.6 420.5 L 216.9 419.1 L 211.2 417.4 L 205.7 415.6 L 200.1 413.5 L 194.7 411.3 L 189.4 408.8 L 184.1 406.2 L 179.0 403.3 L 173.9 400.4 L 169.0 397.2 L 164.2 393.9 L 159.5 390.4 L 154.9 386.8 L 150.4 383.0 L 146.0 379.1 L 141.8 375.0 L 137.7 370.8 L 133.8 366.5 L 130.0 362.0 L 126.4 357.4 L 122.9 352.7 L 119.5 347.9 L 116.4 342.9 L 113.4 337.9 L 110.6 332.7 L 108.0 327.4 L 105.6 322.0 L 103.4 316.5 L 101.5 310.9 L 99.7 305.3 L 98.2 299.6 L 96.9 293.8 L 95.9 288.0 L 95.1 282.1 L 94.5 276.3 L 94.2 270.4 L 94.2 264.5 L 94.4 258.6 L 94.8 252.7 L 95.5 246.9 L 96.4 241.1 L 97.6 235.3 L 98.4 229.5 L 99.4 223.7 L 100.6 218.0 L 102.0 212.2 L 103.7 206.6 Z" fill="#efe4cc"/><circle cx="90.6" cy="201.8" r="13.9" fill="#efe4cc"/><g transform="translate(256 392) scale(3.7)">
      <rect x="-48" y="-5" width="96" height="11" rx="3" fill="#3f3a35"/>
      <ellipse cx="0" cy="-8" rx="36" ry="10" fill="#6a4b78" stroke="#2a2622" stroke-width="1.3"/>
      <path d="M-31 -14 C-34 -40 -20 -68 0 -68 C20 -68 34 -40 31 -14 C22 -9 -22 -9 -31 -14 Z" fill="#fffdf7" stroke="#2a2622" stroke-width="1.6"/>
      <ellipse cx="-17" cy="-36" rx="4.5" ry="2.8" fill="#f2a49a"/><ellipse cx="17" cy="-36" rx="4.5" ry="2.8" fill="#f2a49a"/>
      <g fill="none" stroke="#2a2622" stroke-width="1.6" stroke-linecap="round"><path d="M-13 -44 q4 3.2 8 0"/><path d="M5 -44 q4 3.2 8 0"/><path d="M-2 -35 q2 1.4 4 0"/></g><g><path d="M-26 -33 Q-23 -21 -9 -18.5 M26 -33 Q23 -21 9 -18.5" fill="none" stroke="#2a2622" stroke-width="1.3" stroke-linecap="round"/>
      <ellipse cx="0" cy="-17" rx="10" ry="4.6" fill="#fffdf7" stroke="#2a2622" stroke-width="1.3"/>
      <path d="M-3.5 -20.5 Q0 -23.5 3.5 -20.5" fill="none" stroke="#2a2622" stroke-width="1.1" stroke-linecap="round"/></g></g></svg>